<svg width="175" height="174" viewBox="0 0 175 174" fill="none" xmlns="http://www.w3.org/2000/svg">
<path d="M91.0353 28.6678L156.987 28.6678V53.0568C156.987 60.9493 155.141 66.9958 151.449 71.1961C147.757 75.4303 142.862 77.5474 136.765 77.5474C130.769 77.5474 125.925 75.4303 122.233 71.1961C118.575 66.9958 116.745 60.9493 116.745 53.0568V40.659H91.0353V28.6678ZM91.0353 64.3367L121.928 46.8579V59.6621L91.0353 79.9863V64.3367ZM124.773 40.659V51.8373C124.773 56.2409 125.773 59.5774 127.771 61.847C129.804 64.1165 132.429 65.2513 135.647 65.2513C138.933 65.2513 141.575 64.2181 143.573 62.1518C145.606 60.0855 146.622 57.0539 146.622 53.0568V40.659H124.773Z" fill="#1E7847"/>
<path d="M18.2068 91.2208H84.1587V115.61C84.1587 123.502 82.3126 129.549 78.6204 133.749C74.9282 137.983 70.0335 140.1 63.9362 140.1C57.9406 140.1 53.0967 137.983 49.4044 133.749C45.7461 129.549 43.9169 123.502 43.9169 115.61V103.212H18.2068V91.2208ZM18.2068 126.89L49.0996 109.411V122.215L18.2068 142.539V126.89ZM51.945 103.212V114.39C51.945 118.794 52.9442 122.13 54.9428 124.4C56.9752 126.669 59.6004 127.804 62.8184 127.804C66.1041 127.804 68.7463 126.771 70.7448 124.705C72.7772 122.639 73.7934 119.607 73.7934 115.61V103.212H51.945Z" fill="black"/>
</svg>
